<?xml version="1.0" encoding="UTF-8"?>
<svg xmlns="http://www.w3.org/2000/svg" xmlns:xlink="http://www.w3.org/1999/xlink" width="32pt" height="30pt" viewBox="0 0 32 30" version="1.1">
<g id="surface1">
<path style=" stroke:none;fill-rule:nonzero;fill:rgb(13.72549%,12.156863%,12.54902%);fill-opacity:1;" d="M 15.960938 0.28125 C 7.296875 0.28125 0 6.746094 0 14.71875 C 0 14.972656 0 29.664062 0 29.664062 L 15.957031 29.648438 C 24.621094 29.648438 31.648438 22.9375 31.648438 14.96875 C 31.648438 7 24.617188 0.28125 15.960938 0.28125 Z M 15.960938 0.28125 "/>
<path style=" stroke:none;fill-rule:nonzero;fill:rgb(100%,97.647059%,68.235294%);fill-opacity:1;" d="M 16.113281 5.871094 C 12.6875 5.871094 9.511719 7.53125 7.761719 10.242188 C 6.007812 12.949219 5.933594 16.304688 7.5625 19.078125 L 5.804688 24.285156 L 12.125 22.972656 C 15.742188 24.472656 19.988281 23.796875 22.851562 21.269531 C 25.71875 18.742188 26.625 14.867188 25.144531 11.480469 C 23.664062 8.09375 20.09375 5.871094 16.125 5.871094 Z M 16.113281 5.871094 "/>
<path style=" stroke:none;fill-rule:nonzero;fill:rgb(0%,68.235294%,93.72549%);fill-opacity:1;" d="M 23.832031 9.375 C 26.527344 12.625 26.480469 17.148438 23.71875 20.351562 C 20.957031 23.558594 16.179688 24.632812 12.125 22.957031 L 5.804688 24.289062 L 12.238281 23.589844 C 16.503906 25.886719 21.964844 24.875 24.929688 21.238281 C 27.894531 17.601562 27.421875 12.496094 23.832031 9.375 Z M 23.832031 9.375 "/>
<path style=" stroke:none;fill-rule:nonzero;fill:rgb(0%,66.27451%,30.980392%);fill-opacity:1;" d="M 22.039062 7.722656 C 25.089844 10.699219 25.558594 15.199219 23.175781 18.652344 C 20.792969 22.105469 16.164062 23.632812 11.9375 22.359375 L 5.804688 24.289062 L 12.125 22.972656 C 16.625 24.84375 21.933594 23.3125 24.46875 19.414062 C 27.003906 15.515625 25.960938 10.488281 22.039062 7.722656 Z M 22.039062 7.722656 "/>
<path style=" stroke:none;fill-rule:nonzero;fill:rgb(94.509804%,36.470588%,13.333333%);fill-opacity:1;" d="M 8.144531 19.277344 C 6.382812 15.371094 7.835938 10.863281 11.625 8.472656 C 15.414062 6.078125 20.507812 6.453125 23.835938 9.371094 C 20.753906 5.648438 15.074219 4.742188 10.808594 7.285156 C 6.542969 9.832031 5.125 14.972656 7.5625 19.078125 L 5.804688 24.285156 Z M 8.144531 19.277344 "/>
<path style=" stroke:none;fill-rule:nonzero;fill:rgb(89.019608%,10.588235%,13.72549%);fill-opacity:1;" d="M 7.5625 19.078125 C 5.378906 15.363281 6.3125 10.75 9.804688 8.011719 C 13.296875 5.273438 18.398438 5.152344 22.039062 7.722656 C 18.546875 4.339844 12.816406 3.996094 8.871094 6.929688 C 4.925781 9.863281 4.097656 15.089844 6.964844 18.941406 L 5.804688 24.289062 Z M 7.5625 19.078125 "/>
</g>
</svg>
