<svg xmlns="http://www.w3.org/2000/svg"  viewBox="0 0 32 32" width="32px" height="32px">
<path style=" stroke:none;fill-rule:nonzero;fill:rgb(0%,70.196078%,62.352941%);fill-opacity:1;" d="M 14.191406 4.871094 L 17.496094 4.871094 L 17.496094 8.894531 L 14.191406 8.894531 Z M 14.191406 4.871094 "/>
<path style=" stroke:none;fill-rule:nonzero;fill:rgb(0%,70.196078%,62.352941%);fill-opacity:1;" d="M 14.191406 9.695312 L 17.496094 9.695312 L 17.496094 13.671875 L 14.191406 13.671875 Z M 14.191406 9.695312 "/>
<path style=" stroke:none;fill-rule:nonzero;fill:rgb(0%,70.196078%,62.352941%);fill-opacity:1;" d="M 10.289062 4.871094 L 13.59375 4.871094 L 13.59375 8.894531 L 10.289062 8.894531 Z M 10.289062 4.871094 "/>
<path style=" stroke:none;fill-rule:nonzero;fill:rgb(0%,70.196078%,62.352941%);fill-opacity:1;" d="M 18.101562 9.695312 L 21.402344 9.695312 L 21.402344 13.671875 L 18.101562 13.671875 Z M 18.101562 9.695312 "/>
<path style=" stroke:none;fill-rule:nonzero;fill:rgb(0%,70.196078%,62.352941%);fill-opacity:1;" d="M 14.191406 0 L 17.496094 0 L 17.496094 4.0625 L 14.191406 4.0625 Z M 14.191406 0 "/>
<path style=" stroke:none;fill-rule:nonzero;fill:rgb(0%,70.196078%,62.352941%);fill-opacity:1;" d="M 6.382812 4.871094 L 9.683594 4.871094 L 9.683594 8.894531 L 6.382812 8.894531 Z M 6.382812 4.871094 "/>
<path style=" stroke:none;fill-rule:nonzero;fill:rgb(0%,70.196078%,62.352941%);fill-opacity:1;" d="M 10.289062 9.695312 L 13.59375 9.695312 L 13.59375 13.671875 L 10.289062 13.671875 Z M 10.289062 9.695312 "/>
<path style=" stroke:none;fill-rule:nonzero;fill:rgb(0%,70.196078%,62.352941%);fill-opacity:1;" d="M 31.328125 11.558594 C 30.605469 10.90625 28.949219 10.671875 27.675781 11 C 27.507812 9.398438 26.84375 7.992188 25.625 6.734375 L 24.921875 6.109375 L 24.457031 7.050781 C 23.539062 8.914062 23.289062 11.976562 24.269531 14 C 23.832031 14.316406 22.980469 14.742188 21.847656 14.714844 L 0.128906 14.714844 C -0.308594 18.117188 0.421875 22.53125 2.328125 25.566406 C 4.175781 28.5 6.960938 30 10.597656 30 C 18.460938 30 24.289062 25.148438 27.007812 16.328125 C 28.078125 16.355469 30.386719 16.335938 31.570312 13.300781 C 31.648438 13.132812 31.898438 12.414062 31.996094 12.15625 Z M 31.328125 11.558594 "/>
<path style=" stroke:none;fill-rule:nonzero;fill:rgb(0%,70.196078%,62.352941%);fill-opacity:1;" d="M 5.789062 9.695312 L 2.488281 9.695312 L 2.488281 13.671875 L 5.789062 13.671875 Z M 5.789062 9.695312 "/>
<path style=" stroke:none;fill-rule:nonzero;fill:rgb(0%,70.196078%,62.352941%);fill-opacity:1;" d="M 6.382812 9.695312 L 9.683594 9.695312 L 9.683594 13.671875 L 6.382812 13.671875 Z M 6.382812 9.695312 "/>
</svg>