<?xml version="1.0" encoding="UTF-8"?>
<svg xmlns="http://www.w3.org/2000/svg" xmlns:xlink="http://www.w3.org/1999/xlink" width="32pt" height="30pt" viewBox="0 0 32 30" version="1.1">
<g id="surface1">
<path style=" stroke:none;fill-rule:nonzero;fill:rgb(0%,70.196078%,62.352941%);fill-opacity:1;" d="M 31.355469 9.90625 C 31.597656 9.664062 31.957031 9.890625 31.957031 10.265625 L 31.957031 26.246094 C 31.957031 28.3125 30.621094 30 28.960938 30 L 3.027344 30 C 1.378906 30 0.03125 28.328125 0.03125 26.246094 L 0.03125 10.265625 C 0.03125 9.875 0.390625 9.664062 0.632812 9.90625 C 2.027344 11.261719 3.878906 12.996094 10.242188 18.785156 C 11.554688 19.988281 13.78125 22.523438 15.992188 22.507812 C 18.21875 22.539062 20.480469 19.945312 21.746094 18.785156 C 28.109375 12.996094 29.960938 11.261719 31.355469 9.90625 Z M 15.992188 20.003906 C 17.4375 20.035156 19.519531 17.730469 20.578125 16.765625 C 28.855469 9.242188 29.480469 8.578125 31.390625 6.707031 C 31.753906 6.363281 31.96875 5.804688 31.96875 5.230469 L 31.96875 3.753906 C 31.96875 1.6875 30.632812 0 28.972656 0 L 3.027344 0 C 1.378906 0 0.03125 1.671875 0.03125 3.753906 L 0.03125 5.230469 C 0.03125 5.804688 0.246094 6.347656 0.609375 6.707031 C 2.519531 8.578125 3.144531 9.242188 11.421875 16.765625 C 12.46875 17.714844 14.550781 20.035156 15.992188 20.003906 Z M 15.992188 20.003906 "/>
</g>
</svg>
