<?xml version="1.0" encoding="UTF-8"?>
<svg xmlns="http://www.w3.org/2000/svg" xmlns:xlink="http://www.w3.org/1999/xlink" width="32pt" height="30pt" viewBox="0 0 32 30" version="1.1">
<g id="surface1">
<path style=" stroke:none;fill-rule:nonzero;fill:rgb(0%,0%,0%);fill-opacity:1;" d="M 16.003906 0 C 7.175781 0 0.0117188 6.878906 0.0117188 15.363281 C 0.0117188 21.996094 4.421875 27.878906 10.953125 29.964844 C 11.746094 30.113281 12.039062 29.628906 12.039062 29.226562 C 12.039062 28.855469 12.027344 27.890625 12.015625 26.609375 C 7.570312 27.542969 6.636719 24.546875 6.636719 24.546875 C 5.914062 22.773438 4.863281 22.300781 4.863281 22.300781 C 3.417969 21.347656 4.96875 21.371094 4.96875 21.371094 C 6.566406 21.480469 7.417969 22.953125 7.417969 22.953125 C 8.84375 25.296875 11.164062 24.625 12.074219 24.230469 C 12.214844 23.230469 12.632812 22.558594 13.089844 22.175781 C 9.542969 21.785156 5.808594 20.472656 5.808594 14.578125 C 5.785156 13.054688 6.371094 11.570312 7.453125 10.449219 C 7.292969 10.054688 6.742188 8.496094 7.605469 6.375 C 7.605469 6.375 8.949219 5.960938 12.003906 7.945312 C 13.3125 7.597656 14.652344 7.429688 16.003906 7.429688 C 17.359375 7.441406 18.699219 7.609375 20.007812 7.945312 C 23.0625 5.960938 24.394531 6.375 24.394531 6.375 C 25.269531 8.496094 24.71875 10.054688 24.558594 10.449219 C 25.640625 11.570312 26.226562 13.054688 26.203125 14.578125 C 26.203125 20.484375 22.46875 21.785156 18.910156 22.167969 C 19.480469 22.636719 19.996094 23.582031 19.996094 25.015625 C 19.996094 27.070312 19.972656 28.730469 19.972656 29.238281 C 19.972656 29.652344 20.265625 30.125 21.070312 29.976562 C 29.445312 27.285156 33.960938 18.5625 31.160156 10.503906 C 28.976562 4.230469 22.875 0 16.003906 0 Z M 16.003906 0 "/>
</g>
</svg>
