<?xml version="1.0" encoding="UTF-8"?>
<svg xmlns="http://www.w3.org/2000/svg" xmlns:xlink="http://www.w3.org/1999/xlink" width="32pt" height="30pt" viewBox="0 0 32 30" version="1.1">
<g id="surface1">
<path style=" stroke:none;fill-rule:nonzero;fill:rgb(0%,40%,60%);fill-opacity:1;" d="M 29.691406 0 L 2.308594 0 C 1.03125 0 0 0.96875 0 2.164062 L 0 27.835938 C 0 29.03125 1.03125 30 2.308594 30 L 29.691406 30 C 30.96875 30 32 29.03125 32 27.835938 L 32 2.164062 C 32 0.96875 30.96875 0 29.691406 0 Z M 11.351562 22.675781 L 7.453125 22.675781 L 7.453125 11.683594 L 11.351562 11.683594 Z M 9.402344 10.183594 L 9.375 10.183594 C 8.070312 10.183594 7.222656 9.339844 7.222656 8.285156 C 7.222656 7.207031 8.09375 6.386719 9.429688 6.386719 C 10.761719 6.386719 11.582031 7.207031 11.605469 8.285156 C 11.605469 9.339844 10.761719 10.183594 9.402344 10.183594 Z M 25.402344 22.675781 L 21.503906 22.675781 L 21.503906 16.796875 C 21.503906 15.320312 20.941406 14.3125 19.53125 14.3125 C 18.453125 14.3125 17.8125 14.992188 17.53125 15.648438 C 17.429688 15.882812 17.402344 16.210938 17.402344 16.539062 L 17.402344 22.675781 L 13.507812 22.675781 C 13.507812 22.675781 13.558594 12.714844 13.507812 11.683594 L 17.402344 11.683594 L 17.402344 13.242188 C 17.921875 12.492188 18.847656 11.425781 20.914062 11.425781 C 23.480469 11.425781 25.402344 12.996094 25.402344 16.375 Z M 25.402344 22.675781 "/>
</g>
</svg>
