<?xml version="1.0" encoding="UTF-8"?>
<svg xmlns="http://www.w3.org/2000/svg" xmlns:xlink="http://www.w3.org/1999/xlink" width="32pt" height="30pt" viewBox="0 0 32 30" version="1.1">
<g id="surface1">
<path style=" stroke:none;fill-rule:nonzero;fill:rgb(91.372549%,11.764706%,38.823529%);fill-opacity:1;" d="M 11.789062 15.8125 C 9.933594 15.8125 8.429688 17.226562 8.429688 18.964844 L 8.429688 26.847656 C 8.429688 28.585938 9.933594 30 11.789062 30 C 13.648438 30 15.152344 28.585938 15.152344 26.847656 L 15.152344 18.964844 C 15.152344 17.226562 13.644531 15.8125 11.789062 15.8125 Z M 11.789062 15.8125 "/>
<path style=" stroke:none;fill-rule:nonzero;fill:rgb(91.372549%,11.764706%,38.823529%);fill-opacity:1;" d="M 0.0234375 18.964844 C 0.0234375 20.707031 1.53125 22.117188 3.390625 22.117188 C 5.246094 22.117188 6.753906 20.707031 6.753906 18.964844 L 6.753906 15.8125 L 3.390625 15.8125 C 1.53125 15.8125 0.0234375 17.222656 0.0234375 18.964844 Z M 0.0234375 18.964844 "/>
<path style=" stroke:none;fill-rule:nonzero;fill:rgb(0%,73.72549%,83.137255%);fill-opacity:1;" d="M 11.792969 0 C 11.792969 0 11.792969 0 11.789062 0 C 9.933594 0 8.425781 1.410156 8.425781 3.152344 C 8.425781 4.894531 9.933594 6.304688 11.789062 6.304688 L 15.152344 6.304688 L 15.152344 3.152344 C 15.152344 3.152344 15.152344 3.148438 15.152344 3.144531 C 15.152344 1.40625 13.648438 0 11.792969 0 Z M 11.792969 0 "/>
<path style=" stroke:none;fill-rule:nonzero;fill:rgb(0%,73.72549%,83.137255%);fill-opacity:1;" d="M 3.367188 14.210938 L 11.789062 14.210938 C 13.648438 14.210938 15.15625 12.800781 15.15625 11.058594 C 15.15625 9.316406 13.648438 7.90625 11.789062 7.90625 L 3.367188 7.90625 C 1.507812 7.90625 0.00390625 9.316406 0.00390625 11.058594 C 0.00390625 12.800781 1.507812 14.210938 3.367188 14.210938 Z M 3.367188 14.210938 "/>
<path style=" stroke:none;fill-rule:nonzero;fill:rgb(29.803922%,68.627451%,31.372549%);fill-opacity:1;" d="M 28.609375 7.902344 C 26.753906 7.902344 25.253906 9.3125 25.253906 11.050781 L 25.253906 14.210938 L 28.613281 14.210938 C 30.46875 14.210938 31.976562 12.796875 31.976562 11.058594 C 31.976562 9.316406 30.46875 7.902344 28.613281 7.902344 C 28.613281 7.902344 28.609375 7.902344 28.609375 7.902344 Z M 28.609375 7.902344 "/>
<path style=" stroke:none;fill-rule:nonzero;fill:rgb(29.803922%,68.627451%,31.372549%);fill-opacity:1;" d="M 16.855469 3.152344 L 16.855469 11.058594 C 16.855469 12.796875 18.359375 14.210938 20.214844 14.210938 C 22.070312 14.210938 23.578125 12.796875 23.578125 11.058594 L 23.578125 3.152344 C 23.578125 1.414062 22.070312 0 20.214844 0 C 18.359375 0 16.855469 1.414062 16.855469 3.152344 Z M 16.855469 3.152344 "/>
<path style=" stroke:none;fill-rule:nonzero;fill:rgb(100%,59.607843%,0%);fill-opacity:1;" d="M 23.574219 26.84375 C 23.574219 25.105469 22.070312 23.695312 20.214844 23.695312 L 16.851562 23.695312 L 16.851562 26.847656 C 16.855469 28.585938 18.359375 29.996094 20.214844 29.996094 C 22.070312 29.996094 23.574219 28.585938 23.574219 26.84375 Z M 23.574219 26.84375 "/>
<path style=" stroke:none;fill-rule:nonzero;fill:rgb(100%,59.607843%,0%);fill-opacity:1;" d="M 28.636719 15.8125 L 20.214844 15.8125 C 18.355469 15.8125 16.851562 17.222656 16.851562 18.964844 C 16.851562 20.707031 18.355469 22.117188 20.214844 22.117188 L 28.636719 22.117188 C 30.496094 22.117188 32.003906 20.707031 32.003906 18.964844 C 32.003906 17.222656 30.496094 15.8125 28.636719 15.8125 Z M 28.636719 15.8125 "/>
</g>
</svg>
