<?xml version="1.0" encoding="UTF-8"?>
<svg xmlns="http://www.w3.org/2000/svg" xmlns:xlink="http://www.w3.org/1999/xlink" width="32pt" height="30pt" viewBox="0 0 32 30" version="1.1">
<g id="surface1">
<path style=" stroke:none;fill-rule:nonzero;fill:rgb(1.176471%,66.27451%,95.686275%);fill-opacity:1;" d="M 32 5.699219 C 30.808594 6.1875 29.542969 6.511719 28.21875 6.667969 C 29.578125 5.90625 30.617188 4.710938 31.105469 3.269531 C 29.839844 3.980469 28.4375 4.480469 26.945312 4.757812 C 25.742188 3.558594 24.027344 2.8125 22.152344 2.8125 C 18.523438 2.8125 15.597656 5.578125 15.597656 8.964844 C 15.597656 9.453125 15.640625 9.921875 15.75 10.367188 C 10.296875 10.117188 5.46875 7.667969 2.226562 3.933594 C 1.660156 4.855469 1.328125 5.90625 1.328125 7.042969 C 1.328125 9.171875 2.5 11.0625 4.242188 12.152344 C 3.191406 12.136719 2.15625 11.847656 1.28125 11.394531 C 1.28125 11.414062 1.28125 11.4375 1.28125 11.464844 C 1.28125 14.453125 3.554688 16.933594 6.535156 17.507812 C 6.003906 17.644531 5.421875 17.710938 4.816406 17.710938 C 4.394531 17.710938 3.972656 17.6875 3.574219 17.605469 C 4.425781 20.039062 6.835938 21.832031 9.703125 21.890625 C 7.472656 23.527344 4.636719 24.511719 1.570312 24.511719 C 1.03125 24.511719 0.515625 24.488281 0 24.425781 C 2.90625 26.183594 6.351562 27.1875 10.0625 27.1875 C 22.136719 27.1875 28.734375 17.8125 28.734375 9.6875 C 28.734375 9.414062 28.726562 9.152344 28.710938 8.890625 C 30.015625 8.023438 31.109375 6.941406 32 5.699219 Z M 32 5.699219 "/>
</g>
</svg>
