<svg xmlns="http://www.w3.org/2000/svg"  viewBox="0 0 32 32" width="32px" height="28px">
<path style=" stroke:none;fill-rule:nonzero;fill:rgb(0%,70.196078%,62.352941%);fill-opacity:1;" d="M 31.34375 4.707031 C 30.976562 2.878906 29.894531 1.433594 28.523438 0.941406 C 26.019531 0.0195312 16 0.0195312 16 0.0195312 C 16 0.0195312 5.980469 0.0195312 3.480469 0.898438 C 2.136719 1.390625 1.03125 2.871094 0.664062 4.699219 C 0 8.058594 0 14.996094 0 14.996094 C 0 14.996094 0 21.972656 0.65625 25.28125 C 1.023438 27.113281 2.105469 28.558594 3.476562 29.050781 C 6.007812 29.972656 15.992188 29.972656 15.992188 29.972656 C 15.992188 29.972656 26.011719 29.972656 28.511719 29.09375 C 29.882812 28.601562 30.960938 27.15625 31.332031 25.324219 C 32 21.972656 32 15.039062 32 15.039062 C 32 15.039062 32.023438 8.058594 31.34375 4.707031 Z M 31.34375 4.707031 "/>
<path style=" stroke:none;fill-rule:nonzero;fill:rgb(100%,100%,100%);fill-opacity:1;" d="M 12.8125 21.414062 L 21.144531 14.996094 L 12.8125 8.585938 Z M 12.8125 21.414062 "/>
</svg>