<?xml version="1.0" encoding="UTF-8"?>
<svg id="Layer_1" xmlns="http://www.w3.org/2000/svg" viewBox="0 0 400 400">
  <defs>
    <style>
      .cls-1 {
        fill: #e2e2e2;
      }

      .cls-2 {
        opacity: .8;
      }

      .cls-2, .cls-3 {
        fill: #fff;
      }
    </style>
  </defs>
  <polygon class="cls-3" points="241.01 77.34 241.01 155.45 308.71 116.26 241.01 77.34"/>
  <polygon class="cls-3" points="168.34 244.47 168.34 322.95 236.66 283.89 168.34 244.47"/>
  <polygon class="cls-2" points="158.59 227.59 158.59 150.67 91.72 189 158.59 227.59"/>
  <path class="cls-2" d="M24.47,322.68c13.11,21.08,30.88,38.96,51.87,52.2v-82.23l-51.87,30.03Z"/>
  <polygon class="cls-2" points="158.59 322.59 158.59 245.03 91.56 283.84 158.59 322.59"/>
  <polygon class="cls-3" points="86.08 369.98 153.96 331.17 86.08 291.93 86.08 369.98"/>
  <polygon class="cls-2" points="241.3 370.4 241.3 292.46 173.52 331.22 241.3 370.4"/>
  <path class="cls-2" d="M307.7,313.63c11.28-21.03,18.1-44.82,19.18-70.1l-70.65,40.39,51.47,29.7Z"/>
  <polygon class="cls-3" points="323.72 202.99 391.84 164.04 323.72 124.89 323.72 202.99"/>
  <polygon class="cls-2" points="313.97 108.04 313.97 30.59 246.51 69.26 313.97 108.04"/>
  <polygon class="cls-2" points="313.97 202.64 313.97 124.48 246.35 163.62 313.97 202.64"/>
  <path class="cls-1" d="M163.46,400s0,0,.01,0h-.02s0,0,.01,0Z"/>
  <polygon class="cls-3" points="86.08 197 86.08 275.75 154.2 236.31 86.08 197"/>
  <path class="cls-2" d="M158.59,72.93c-25.89.76-50.27,7.53-71.79,18.97l71.79,41.27v-60.24Z"/>
  <polygon class="cls-3" points="86.08 102.73 86.08 181 154.26 141.92 86.08 102.73"/>
  <path class="cls-2" d="M76.34,97.97c-21,13.24-38.77,31.13-51.88,52.21l51.88,29.94v-82.15Z"/>
  <path class="cls-3" d="M313.52,19.61C291.82,7.94,267.19,1.02,241.01.26v60.92l72.51-41.57Z"/>
  <path class="cls-3" d="M0,242.17c.9,26.03,7.87,50.53,19.56,72.09l52.53-30.41L0,242.17Z"/>
  <path class="cls-3" d="M19.55,158.61C7.92,180.07.96,204.44.01,230.34l72.16-41.36-52.62-30.36Z"/>
  <path class="cls-2" d="M86.67,380.88c21.56,11.48,45.98,18.29,71.92,19.05v-60.17l-71.92,41.12Z"/>
  <path class="cls-3" d="M375.27,77.72c-13.03-21.03-30.69-38.88-51.56-52.14v81.99l51.56-29.85Z"/>
  <path class="cls-3" d="M251.05,374.59c21-13.34,38.74-31.33,51.79-52.52l-51.79-29.89v82.4Z"/>
  <path class="cls-2" d="M399.57,157.25c-1-25.66-7.91-49.79-19.41-71.09l-51.95,30.08,71.35,41.02Z"/>
  <path class="cls-3" d="M168.34,399.92c25.88-.76,50.24-7.53,71.76-18.96l-71.76-41.48v60.44Z"/>
  <polygon class="cls-2" points="76.34 275.04 76.34 197.82 9.27 236.27 76.34 275.04"/>
</svg>